<svg xmlns="http://www.w3.org/2000/svg" xmlns:xlink="http://www.w3.org/1999/xlink" width="71" height="58" viewBox="0 0 71 58"><defs><path id="mywta" d="M1322.102 10566.998h-61.207c-2.704 0-4.896-2.164-4.896-4.834v-38.667c0-2.67 2.192-4.833 4.896-4.833h14.844s-.153-.289-.153-3.625c0-3.337 2.74-6.042 6.12-6.042h19.587c3.38 0 6.12 2.705 6.12 6.042 0 3.336.153 3.625.153 3.625h14.536c2.704 0 4.896 2.164 4.896 4.833v38.667c0 2.67-2.192 4.834-4.896 4.834zm-30.493-9.733c8.113 0 14.69-6.49 14.69-14.5 0-8.008-6.577-14.5-14.69-14.5s-14.69 6.492-14.69 14.5c0 8.01 6.577 14.5 14.69 14.5z"/></defs><g><g clip-path="url(#clip-1255)" transform="translate(-1256 -10509)"><use fill="#fff" xlink:href="#mywta"/></g></g></svg>