<svg xmlns="http://www.w3.org/2000/svg" xmlns:xlink="http://www.w3.org/1999/xlink" width="32" height="32" viewBox="0 0 32 32"><defs><path id="qtnta" d="M1167.914 4341.578a2 2 0 0 1-1.914 1.421h-28a2 2 0 0 1-1.11-3.664c.2-.133 3.848-2.525 9.273-3.699-1.99-2.523-3.267-5.913-3.81-8.17-.753-3.128-.461-9.248 2.542-13.061 1.756-2.228 4.213-3.406 7.105-3.406 2.892 0 5.349 1.178 7.104 3.406 3.004 3.813 3.296 9.933 2.543 13.062-.543 2.256-1.82 5.647-3.81 8.17 5.425 1.173 9.072 3.565 9.272 3.698.734.488 1.06 1.4.805 2.243zm-8.075-19.83c-.546-4.28-2.998-8.75-7.839-8.75-4.84 0-7.293 4.47-7.839 8.75-.595 4.453.787 9.12 3.572 12.65l.327.414c2.385 2.74 5.495 2.74 7.88 0l.326-.415c2.788-3.53 4.165-8.194 3.573-12.649zm6.16 19.251c-.189-.126-3.564-2.322-8.585-3.408l-2.484-.538c-.886.583-1.86.947-2.93.947s-2.044-.364-2.93-.947l-2.484.538c-5.06 1.094-8.448 3.316-8.586 3.408z"/></defs><g><g transform="translate(-1136 -4311)"><use fill="#fff" xlink:href="#qtnta"/></g></g></svg>